Coordinates
version=1
nRows=5
nColumns=42
inDegrees=yes

Units are S.I. units (second, meters, Newtons, ...)
If the header above contains a line with 'inDegrees', this indicates whether rotational values are in degrees (yes) or radians (no).

endheader
time	pelvis_tilt	pelvis_list	pelvis_rotation	pelvis_tx	pelvis_ty	pelvis_tz	hip_flexion_r	hip_adduction_r	hip_rotation_r	knee_angle_r	knee_adduction_r	knee_angle_r_beta	ankle_angle_r	subtalar_angle_r	mtp_angle_r	hip_flexion_l	hip_adduction_l	hip_rotation_l	knee_angle_l	knee_adduction_l	knee_angle_l_beta	ankle_angle_l	subtalar_angle_l	mtp_angle_l	lumbar_extension	lumbar_bending	lumbar_rotation	arm_flex_r	arm_add_r	arm_rot_r	elbow_flex_r	pro_sup_r	wrist_flex_r	wrist_dev_r	arm_flex_l	arm_add_l	arm_rot_l	elbow_flex_l	pro_sup_l	wrist_flex_l	wrist_dev_l
      0.10000000	      7.65755584	     -2.70492431	     -2.52886904	     -1.28446634	      0.87051907	     -0.11427678	    -12.59885522	     -1.50966228	    -12.73599776	     32.71769206	      7.68569037	      0.57103145	     29.47538184	     28.42144671	     -9.33551794	     31.60529273	     -3.80277372	    -27.63920457	     36.48516128	     -8.10040855	      0.63678619	     12.91054025	     23.62085068	     -9.33551794	    -21.03054386	      5.01973026	      0.87887074	     13.71610797	    -10.93286834	     -2.73215758	     43.70937427	     90.00000001	      0.00000000	      0.00000000	     -8.68741642	     -3.00598152	    -27.18260043	     33.81011921	     90.00000001	      0.00000000	      0.00000000
      0.11000000	      7.76144809	     -2.56157150	     -2.51942405	     -1.27467391	      0.87007130	     -0.11441198	    -13.24998265	     -1.54487030	    -12.49434770	     32.89853979	      7.38024644	      0.57418784	     29.38821433	     28.39411080	     -9.33172929	     31.20467521	     -3.43333562	    -27.35906452	     37.06569770	     -8.35651915	      0.64691846	     12.75757037	     23.61624903	     -9.33172929	    -20.89235558	      4.74252618	      0.78517062	     13.29307194	    -10.75757499	     -2.70788797	     43.60142295	     90.00000001	      0.00000000	      0.00000000	     -8.84835112	     -3.14490913	    -27.22448146	     33.65249249	     90.00000001	      0.00000000	      0.00000000
      0.12000000	      8.04433573	     -2.41190169	     -2.30769193	     -1.26481648	      0.87014157	     -0.11454303	    -14.27826366	     -1.52054300	    -12.46506056	     32.74839791	      7.15653739	      0.57156737	     28.59868088	     27.45626174	     -9.24028267	     30.67993299	     -3.03145288	    -26.19971009	     37.94633127	     -8.08216715	      0.66228842	     11.84186854	     21.55477876	     -9.24028267	    -20.96434991	      4.45928132	      0.60513803	     12.71436527	    -10.45597365	     -3.07733709	     44.05354017	     90.00000001	      0.00000000	      0.00000000	     -8.30236238	     -3.61594901	    -27.27510465	     32.09439014	     90.00000001	      0.00000000	      0.00000000
      0.13000000	      8.25819126	     -2.17041119	     -2.18071920	     -1.25478363	      0.87024964	     -0.11466207	    -15.06165266	     -1.61970550	    -12.43316269	     32.92223905	      6.84146575	      0.57460147	     28.31156351	     27.21388128	     -9.23000905	     30.26182647	     -2.56091756	    -25.69336376	     38.72372698	     -8.24968760	      0.67585653	     11.58817251	     21.38595297	     -9.23000905	    -20.91269022	      4.03337055	      0.44350763	     12.21761024	    -10.23250791	     -3.09571202	     43.93333385	     90.00000001	      0.00000000	      0.00000000	     -8.33059967	     -3.91920352	    -27.34173787	     31.91243563	     90.00000001	      0.00000000	      0.00000000
      0.14000000	      8.53174482	     -1.92232524	     -1.98699442	     -1.24469258	      0.87072010	     -0.11490945	    -15.89415908	     -1.68682131	    -12.64855292	     33.09229877	      6.39835333	      0.57756957	     27.17535992	     26.26664426	     -9.20263166	     29.76868211	     -1.95972992	    -24.48830195	     39.54078591	     -8.12076181	      0.69011690	     11.06357651	     20.13836637	     -9.20263166	    -20.94269535	      3.65271178	      0.22347951	     11.63292582	     -9.92820429	     -3.31838488	     43.95892042	     90.00000001	      0.00000000	      0.00000000	     -8.20005522	     -4.28641931	    -27.42521013	     31.21275673	     90.00000001	      0.00000000	      0.00000000
